<svg width="25" height="25" viewBox="0 0 25 25" fill="none" xmlns="http://www.w3.org/2000/svg">
<g clip-path="url(#clip0_20_85)">
<path d="M11.5415 15.1345H15.6971C15.6599 13.697 15.4527 12.3207 15.0913 11.0905C13.9807 11.3535 12.7797 11.505 11.5415 11.5342V15.1345H11.5415Z" fill="#56181A"/>
<path d="M11.5415 24.7024C11.9613 24.6174 12.3705 24.4128 12.7691 24.0966C13.3244 23.6529 13.8292 23.0072 14.2676 22.1809C14.4642 21.8089 14.6423 21.413 14.7991 20.9932C13.7814 20.7594 12.6814 20.6239 11.5442 20.5946V24.7024H11.5415Z" fill="#56181A"/>
<path d="M10.6116 24.7024V20.5947C9.47438 20.6239 8.37436 20.7594 7.35672 20.9932C7.51348 21.413 7.69153 21.8089 7.88813 22.1809C8.32654 23.0073 8.82872 23.6529 9.38669 24.0966C9.78259 24.4128 10.1918 24.6174 10.6116 24.7024Z" fill="#56181A"/>
<path d="M11.5415 19.6647C12.7824 19.694 13.9807 19.8454 15.0914 20.1084C15.4501 18.8782 15.6599 17.5019 15.6972 16.0644H11.5416V19.6647H11.5415Z" fill="#56181A"/>
<path d="M10.6116 16.0644H6.45596C6.49316 17.5019 6.70041 18.8782 7.06177 20.1084C8.1724 19.8454 9.37338 19.6939 10.6116 19.6647V16.0644Z" fill="#56181A"/>
<path d="M10.6116 11.5342C9.37072 11.505 8.1724 11.3535 7.06177 11.0905C6.70307 12.3207 6.49316 13.697 6.45596 15.1345H10.6116V11.5342Z" fill="#56181A"/>
<path d="M9.03333 24.9974C8.29465 24.4792 7.62511 23.6742 7.06445 22.6167C6.83594 22.1862 6.63135 21.7239 6.45333 21.2323C5.7439 21.4476 5.08496 21.7133 4.49509 22.0241C4.3649 22.0932 4.24002 22.1623 4.12045 22.234C5.42243 23.6024 7.12293 24.5855 9.03333 24.9974Z" fill="#56181A"/>
<path d="M7.06445 8.58222C7.62511 7.52206 8.29466 6.71964 9.03334 6.20152C7.12028 6.61601 5.41977 7.59646 4.11783 8.96218C4.23739 9.03392 4.36228 9.10566 4.49247 9.17208C5.08499 9.48561 5.74128 9.75131 6.4507 9.96388C6.63138 9.47498 6.83597 9.01266 7.06445 8.58222Z" fill="#56181A"/>
<path d="M18.6518 21.5246C19.8421 20.0048 20.5834 18.1183 20.6817 16.0644H16.6271C16.5899 17.5816 16.372 19.0403 15.9894 20.3502C16.7493 20.5814 17.4561 20.8657 18.0938 21.2031C18.2878 21.3067 18.4738 21.413 18.6518 21.5246Z" fill="#56181A"/>
<path d="M10.6116 6.49645C10.1918 6.58147 9.7826 6.78606 9.38404 7.10225C8.82875 7.54597 8.32391 8.19163 7.8855 9.01797C7.68888 9.38996 7.51083 9.78586 7.3541 10.2057C8.37174 10.4395 9.47175 10.575 10.609 10.6042V6.49645H10.6116Z" fill="#56181A"/>
<path d="M20.1265 12.3366C19.5924 12.9796 19.2098 13.4074 19.1566 13.4685L19.1513 13.4765C18.8378 13.8325 18.2825 13.8325 17.9689 13.4765L17.9636 13.4685C17.8839 13.3782 17.0602 12.4535 16.0957 11.226C16.4119 12.4349 16.5953 13.7608 16.6298 15.1345H20.6845C20.6339 14.1567 20.4426 13.2161 20.1265 12.3366Z" fill="#56181A"/>
<path d="M3.50138 9.67426C2.31103 11.1941 1.56972 13.0779 1.47141 15.1345H5.52604C5.56324 13.6173 5.78111 12.1586 6.16373 10.8487C5.40382 10.6175 4.69704 10.3332 4.05936 9.99576C3.86539 9.88948 3.6794 9.7832 3.50138 9.67426Z" fill="#56181A"/>
<path d="M18.0353 22.2367C17.9158 22.165 17.7909 22.0932 17.6607 22.0268C17.0682 21.7133 16.4119 21.4476 15.7025 21.235C15.5218 21.7239 15.3172 22.1862 15.0914 22.6193C14.5307 23.6795 13.8611 24.4819 13.1225 25C15.0302 24.5855 16.7307 23.6024 18.0353 22.2367Z" fill="#56181A"/>
<path d="M3.50138 21.5246C3.6794 21.4157 3.86539 21.3067 4.05936 21.2058C4.69704 20.8683 5.40382 20.5814 6.16373 20.3529C5.78377 19.043 5.56324 17.5842 5.52604 16.0671H1.47141C1.56972 18.1183 2.31103 20.0048 3.50138 21.5246Z" fill="#56181A"/>
<path d="M12.7691 7.10225C12.3732 6.78606 11.9614 6.58147 11.5416 6.49645V10.6042C12.6788 10.575 13.7788 10.4395 14.7964 10.2057C14.6397 9.78586 14.4616 9.38996 14.265 9.01797C13.8293 8.18898 13.3244 7.54597 12.7691 7.10225Z" fill="#56181A"/>
<path d="M23.1714 3.05825C22.919 2.46307 22.5576 1.92635 22.098 1.46668C21.6383 1.00702 21.1043 0.645659 20.5064 0.393241C19.89 0.132852 19.2337 0 18.5588 0C17.884 0 17.2276 0.132852 16.6112 0.393241C16.0161 0.645659 15.4793 1.00702 15.0197 1.46668C14.56 1.92635 14.1986 2.46041 13.9462 3.05825C13.4733 4.1742 13.4812 5.44426 13.9011 6.56287C13.9702 6.74886 14.0499 6.92954 14.1429 7.10491C14.6238 8.02424 15.3332 9.06314 16.0453 10.0144C16.2446 10.2827 16.4465 10.5431 16.6405 10.7902C17.2383 11.5528 17.7857 12.2064 18.1444 12.6209C18.3622 12.876 18.7555 12.876 18.976 12.6209C19.1859 12.3765 19.4649 12.047 19.7811 11.6617C20.7935 10.4235 22.1937 8.60345 22.9775 7.10488C23.6205 5.86939 23.7214 4.36019 23.1714 3.05825ZM18.5588 2.16548C20.1158 2.16548 21.3753 3.42757 21.3753 4.98194C21.3753 5.02445 21.3753 5.06696 21.3726 5.10948C21.3566 5.47615 21.269 5.82422 21.1255 6.14306C20.8571 6.73824 20.3868 7.22182 19.8023 7.51143C19.4276 7.69743 19.0025 7.80105 18.5561 7.80105C18.5296 7.80105 18.5057 7.80105 18.4791 7.80105C16.9593 7.76119 15.7397 6.51505 15.7397 4.98459C15.7397 4.90223 15.7424 4.81986 15.7503 4.74015C15.8779 3.29738 17.0868 2.16548 18.5588 2.16548Z" fill="#56181A"/>
</g>
<defs>
<clipPath id="clip0_20_85">
<rect width="25" height="25" fill="white"/>
</clipPath>
</defs>
</svg>
