<svg width="40" height="40" viewBox="0 0 40 40" fill="none" xmlns="http://www.w3.org/2000/svg">
<path d="M29.7217 10.9917V13.4517C29.7217 13.8467 29.4 14.1667 28.9967 14.1667H26.555C26.1583 14.1667 25.8317 13.8467 25.8317 13.4517V10.9917C25.8317 10.5967 26.1567 10.2783 26.555 10.2783H28.9967C29.4 10.2783 29.7217 10.5967 29.7217 10.9917ZM20 23.4883C21.8683 23.4883 23.38 21.975 23.38 20.1067C23.38 18.2383 21.8683 16.725 20 16.725C18.1317 16.725 16.62 18.2383 16.62 20.1067C16.62 21.975 18.1317 23.4883 20 23.4883ZM40 20C40 31.045 31.045 40 20 40C8.955 40 0 31.045 0 20C0 8.955 8.955 0 20 0C31.045 0 40 8.955 40 20ZM31.6667 17.0833H25.0783C25.605 17.9717 25.925 18.9983 25.925 20.105C25.925 23.385 23.265 26.045 19.9867 26.045C16.705 26.045 14.0467 23.385 14.0467 20.105C14.0467 18.9967 14.365 17.97 14.895 17.0833H8.33333V27.0767C8.33333 29.6117 10.45 31.6667 12.985 31.6667H27.075C29.61 31.6667 31.6667 29.6117 31.6667 27.0767V17.0833ZM19.985 24.6817C22.51 24.6817 24.56 22.6283 24.56 20.105C24.56 18.735 23.9533 17.505 22.9983 16.6667C22.6617 16.3717 22.2833 16.1267 21.87 15.9383C21.2933 15.6767 20.655 15.53 19.9833 15.53C19.3083 15.53 18.67 15.6767 18.095 15.9383C17.685 16.125 17.305 16.3717 16.97 16.6667C16.0133 17.505 15.4067 18.7367 15.4067 20.105C15.4083 22.6283 17.4633 24.6817 19.985 24.6817ZM31.6667 12.9233C31.6667 10.3883 29.61 8.33333 27.075 8.33333H15.1383V13.195H14.1667V8.33333H13.195V13.195H12.2217V8.40833C11.885 8.46333 11.56 8.54667 11.25 8.67V13.195H10.2783V9.20667C9.10833 10.04 8.33333 11.39 8.33333 12.9233V16.1117H15.5983C16.7333 14.865 18.32 14.1667 19.985 14.1667C21.6583 14.1667 23.2417 14.87 24.37 16.1117H31.6667V12.9233Z" fill="#C4151E"/>
</svg>
