<svg width="32" height="390" viewBox="0 0 32 390" fill="none" xmlns="http://www.w3.org/2000/svg">
<path d="M1.58469 39V0.359997H18.8047C21.7647 0.359997 24.2047 0.919997 26.1247 2.04C28.0447 3.16 29.4647 4.7 30.3847 6.66C31.3047 8.58 31.7647 10.78 31.7647 13.26C31.7647 17.1 30.5647 20.18 28.1647 22.5C25.8047 24.82 22.6047 25.98 18.5647 25.98H8.12469V39H1.58469ZM8.12469 20.82H17.3647C19.9647 20.82 21.9247 20.14 23.2447 18.78C24.5647 17.42 25.2247 15.58 25.2247 13.26C25.2247 10.78 24.5847 8.86 23.3047 7.5C22.0647 6.14 20.1847 5.46 17.6647 5.46H8.12469V20.82ZM9.08469 89V60.56H15.0847L15.4447 63.86C16.8047 62.98 18.4247 62.18 20.3047 61.46C22.1847 60.74 24.0447 60.24 25.8847 59.96V64.94C24.7647 65.14 23.5447 65.44 22.2247 65.84C20.9447 66.2 19.7247 66.62 18.5647 67.1C17.4047 67.54 16.4247 68 15.6247 68.48V89H9.08469ZM16.2301 139.6C11.1101 139.6 7.35008 138.32 4.95008 135.76C2.59008 133.2 1.41008 129.54 1.41008 124.78C1.41008 120.02 2.61008 116.36 5.01008 113.8C7.41008 111.24 11.1501 109.96 16.2301 109.96C21.3501 109.96 25.1101 111.24 27.5101 113.8C29.9101 116.36 31.1101 120.02 31.1101 124.78C31.1101 129.54 29.9101 133.2 27.5101 135.76C25.1501 138.32 21.3901 139.6 16.2301 139.6ZM16.2301 134.08C19.2301 134.08 21.3501 133.36 22.5901 131.92C23.8701 130.44 24.5101 128.06 24.5101 124.78C24.5101 121.5 23.8701 119.14 22.5901 117.7C21.3501 116.26 19.2301 115.54 16.2301 115.54C13.2701 115.54 11.1501 116.26 9.87008 117.7C8.63008 119.14 8.01008 121.5 8.01008 124.78C8.01008 128.06 8.63008 130.44 9.87008 131.92C11.1501 133.36 13.2701 134.08 16.2301 134.08ZM13.8315 154.62V149.22H20.9715V154.62H13.8315ZM11.7315 203.04C9.41148 203.04 7.43148 202.72 5.79148 202.08V197.34C6.47148 197.54 7.11148 197.68 7.71148 197.76C8.35148 197.88 8.93148 197.94 9.45148 197.94C11.3315 197.94 12.6315 197.6 13.3515 196.92C14.1115 196.24 14.4915 195.12 14.4915 193.56V165.54H10.1715L10.7715 160.56H20.9715V194.16C20.9715 196.84 20.1915 198.98 18.6315 200.58C17.1115 202.22 14.8115 203.04 11.7315 203.04ZM17.5667 239.6C12.6067 239.6 8.76672 238.38 6.04672 235.94C3.32672 233.5 1.96672 229.76 1.96672 224.72C1.96672 220.16 3.12672 216.56 5.44672 213.92C7.76672 211.28 11.2867 209.96 16.0067 209.96C20.3267 209.96 23.5667 211.1 25.7267 213.38C27.9267 215.62 29.0267 218.52 29.0267 222.08V227.36H8.20672C8.52672 230.12 9.52672 232.02 11.2067 233.06C12.8867 234.1 15.4467 234.62 18.8867 234.62C20.3267 234.62 21.8067 234.48 23.3267 234.2C24.8467 233.92 26.1667 233.56 27.2867 233.12V237.92C26.0067 238.48 24.5267 238.9 22.8467 239.18C21.2067 239.46 19.4467 239.6 17.5667 239.6ZM8.20672 223.1H23.2667V221.12C23.2667 219.16 22.7267 217.64 21.6467 216.56C20.5667 215.44 18.7467 214.88 16.1867 214.88C13.1467 214.88 11.0467 215.54 9.88672 216.86C8.76672 218.18 8.20672 220.26 8.20672 223.1ZM19.3588 289.6C16.3188 289.6 14.0388 288.8 12.5188 287.2C11.0388 285.56 10.2988 283.34 10.2988 280.54V265.66H6.09875V260.56H10.2988V254.02L16.7788 252.04V260.56H24.3388L23.9188 265.66H16.7788V280.18C16.7788 281.82 17.1588 282.98 17.9188 283.66C18.6788 284.3 19.9188 284.62 21.6388 284.62C22.7188 284.62 23.8588 284.42 25.0588 284.02V288.64C23.4988 289.28 21.5988 289.6 19.3588 289.6ZM15.6148 339.6C10.4948 339.6 6.73484 338.32 4.33484 335.76C1.97484 333.2 0.794844 329.54 0.794844 324.78C0.794844 320.02 1.99484 316.36 4.39484 313.8C6.79484 311.24 10.5348 309.96 15.6148 309.96C20.7348 309.96 24.4948 311.24 26.8948 313.8C29.2948 316.36 30.4948 320.02 30.4948 324.78C30.4948 329.54 29.2948 333.2 26.8948 335.76C24.5348 338.32 20.7748 339.6 15.6148 339.6ZM15.6148 334.08C18.6148 334.08 20.7348 333.36 21.9748 331.92C23.2548 330.44 23.8948 328.06 23.8948 324.78C23.8948 321.5 23.2548 319.14 21.9748 317.7C20.7348 316.26 18.6148 315.54 15.6148 315.54C12.6548 315.54 10.5348 316.26 9.25484 317.7C8.01484 319.14 7.39484 321.5 7.39484 324.78C7.39484 328.06 8.01484 330.44 9.25484 331.92C10.5348 333.36 12.6548 334.08 15.6148 334.08ZM14.544 389.6C12.584 389.6 10.704 389.46 8.90398 389.18C7.14398 388.9 5.68398 388.56 4.52398 388.16V382.64C5.88398 383.16 7.38398 383.56 9.02398 383.84C10.664 384.12 12.224 384.26 13.704 384.26C15.944 384.26 17.544 384.06 18.504 383.66C19.464 383.26 19.944 382.48 19.944 381.32C19.944 380.48 19.644 379.82 19.044 379.34C18.484 378.86 17.624 378.42 16.464 378.02C15.344 377.62 13.904 377.14 12.144 376.58C10.464 376.02 9.00398 375.42 7.76398 374.78C6.52398 374.1 5.56398 373.24 4.88398 372.2C4.20398 371.16 3.86398 369.8 3.86398 368.12C3.86398 365.52 4.80398 363.52 6.68398 362.12C8.56398 360.68 11.584 359.96 15.744 359.96C17.384 359.96 18.944 360.08 20.424 360.32C21.904 360.56 23.164 360.86 24.204 361.22V366.68C23.084 366.24 21.844 365.9 20.484 365.66C19.164 365.42 17.924 365.3 16.764 365.3C14.684 365.3 13.104 365.48 12.024 365.84C10.984 366.2 10.464 366.92 10.464 368C10.464 369.12 11.004 369.92 12.084 370.4C13.204 370.84 14.984 371.46 17.424 372.26C19.664 372.94 21.444 373.66 22.764 374.42C24.084 375.18 25.024 376.1 25.584 377.18C26.184 378.22 26.484 379.58 26.484 381.26C26.484 384.06 25.464 386.16 23.424 387.56C21.384 388.92 18.424 389.6 14.544 389.6Z" fill="#C4C4C4"/>
</svg>
